<svg width="34" height="34" viewBox="0 0 34 34" fill="none" xmlns="http://www.w3.org/2000/svg">
<circle cx="17" cy="17" r="16" stroke="#B6BEC3"/>
<path d="M23.9962 21.957V21.9564H23.9997V16.8324C23.9997 14.3257 23.459 12.3948 20.5225 12.3948C19.1108 12.3948 18.1635 13.1679 17.7767 13.9008H17.7359V12.6288H14.9517V21.9564H17.8508V17.3377C17.8508 16.1216 18.0818 14.9457 19.5909 14.9457C21.0778 14.9457 21.1 16.3335 21.1 17.4157V21.957H23.9962Z" fill="#B6BEC3"/>
<path d="M10.2314 12.6294H13.1341V21.957H10.2314V12.6294Z" fill="#B6BEC3"/>
<path d="M11.6812 7.9856C10.7531 7.9856 10 8.73714 10 9.66332C10 10.5895 10.7531 11.3568 11.6812 11.3568C12.6092 11.3568 13.3623 10.5895 13.3623 9.66332C13.3617 8.73714 12.6087 7.9856 11.6812 7.9856V7.9856Z" fill="#B6BEC3"/>
</svg>
