<svg width="64" height="64" viewBox="0 0 64 64" fill="none" xmlns="http://www.w3.org/2000/svg">
<rect width="64" height="64" rx="8" fill="#9B9EA3" fill-opacity="0.1"/>
<path d="M31.693 42.3092H24.3849C24.1924 42.3112 24.0014 42.2746 23.8232 42.2018C23.645 42.129 23.4831 42.0217 23.347 41.8856C23.2109 41.7495 23.1032 41.5875 23.0305 41.4092C22.9577 41.231 22.9213 41.0401 22.9232 40.8476V20.3849C22.9213 20.1924 22.9577 20.0014 23.0305 19.8232C23.1032 19.645 23.2109 19.4829 23.347 19.3468C23.4831 19.2107 23.645 19.1034 23.8232 19.0307C24.0014 18.9579 24.1924 18.9213 24.3849 18.9232H33.1546V24.7697C33.1526 24.9622 33.1891 25.1532 33.2618 25.3314C33.3346 25.5096 33.4422 25.6717 33.5783 25.8078C33.7145 25.9439 33.8763 26.0512 34.0546 26.1239C34.2328 26.1967 34.4237 26.2333 34.6162 26.2314H41.9243C42.2113 26.232 42.4917 26.1454 42.7283 25.983C42.969 25.8213 43.157 25.5924 43.2691 25.325C43.3859 25.0584 43.4165 24.7623 43.3567 24.4775C43.3001 24.196 43.163 23.937 42.962 23.732L35.6539 16.4239C35.5333 16.31 35.3952 16.2163 35.2448 16.1463H35.1131C34.9826 16.0824 34.8455 16.0333 34.704 16H24.3849C23.2219 16 22.1066 16.462 21.2843 17.2843C20.462 18.1066 20 19.2219 20 20.3849V40.8476C20 42.0105 20.462 43.1259 21.2843 43.9482C22.1066 44.7705 23.2219 45.2324 24.3849 45.2324H31.693C32.0806 45.2324 32.4525 45.0783 32.7266 44.8042C33.0007 44.5301 33.1546 44.1585 33.1546 43.7708C33.1546 43.3832 33.0007 43.0115 32.7266 42.7374C32.4525 42.4633 32.0806 42.3092 31.693 42.3092ZM36.0778 20.984L38.4018 23.3081H36.0778V20.984Z" fill="#6A6E75"/>
<path d="M39.832 48.5234V46.4072C38.944 46.3141 38.1491 46.0742 37.4473 45.6875C36.7454 45.3008 36.1976 44.7529 35.8037 44.0439C35.4098 43.335 35.2236 42.4541 35.2451 41.4014L35.2666 41.3477H38.3174C38.3174 42.3073 38.5394 42.9948 38.9834 43.4102C39.4274 43.8255 39.986 44.0332 40.6592 44.0332C41.3109 44.0332 41.8086 43.8613 42.1523 43.5176C42.5033 43.1667 42.6787 42.6976 42.6787 42.1104C42.6787 41.5303 42.5104 41.0576 42.1738 40.6924C41.8444 40.3271 41.2751 39.987 40.4658 39.6719C39.4059 39.2852 38.5286 38.877 37.834 38.4473C37.1465 38.0104 36.6309 37.4984 36.2871 36.9111C35.9505 36.3167 35.7822 35.5863 35.7822 34.7197C35.7822 33.5166 36.1654 32.5319 36.9316 31.7656C37.7051 30.9922 38.7435 30.5374 40.0469 30.4014V28.0918H41.7549V30.4336C43.0081 30.6198 43.9928 31.1462 44.709 32.0127C45.4323 32.8721 45.7868 33.9928 45.7725 35.375L45.7402 35.4287H42.6895C42.6895 34.5837 42.514 33.932 42.1631 33.4736C41.8122 33.0153 41.3395 32.7861 40.7451 32.7861C40.1292 32.7861 39.6673 32.9652 39.3594 33.3232C39.0586 33.6742 38.9082 34.1432 38.9082 34.7305C38.9082 35.2891 39.0658 35.7438 39.3809 36.0947C39.7031 36.4385 40.2904 36.7786 41.1426 37.1152C42.1953 37.5306 43.0654 37.9603 43.7529 38.4043C44.4476 38.8411 44.9632 39.3532 45.2998 39.9404C45.6436 40.5277 45.8154 41.2438 45.8154 42.0889C45.8154 43.3278 45.4287 44.3232 44.6553 45.0752C43.889 45.82 42.8506 46.2604 41.54 46.3965V48.5234H39.832Z" fill="#6A6E75"/>
</svg>
