<svg width="64" height="64" viewBox="0 0 64 64" fill="none" xmlns="http://www.w3.org/2000/svg">
<rect width="64" height="64" rx="8" fill="#9B9EA3" fill-opacity="0.1"/>
<path d="M29.4545 23.0909C29.201 23.0922 28.9532 23.1673 28.7417 23.3072C28.5331 23.4457 28.3729 23.6461 28.2836 23.8801C28.1819 24.1123 28.1553 24.3701 28.2073 24.6181C28.2542 24.864 28.3739 25.0902 28.551 25.2672C28.728 25.4442 28.9541 25.564 29.2001 25.6109C29.4481 25.663 29.7061 25.6362 29.9382 25.5344C30.1723 25.4453 30.3725 25.2852 30.5109 25.0764C30.6403 24.8849 30.7152 24.6616 30.7274 24.4308C30.7396 24.1999 30.6886 23.9699 30.58 23.7658C30.4714 23.5617 30.3092 23.391 30.111 23.2721C29.9127 23.1532 29.6858 23.0906 29.4545 23.0909ZM24.3636 23.0909C24.1101 23.0922 23.8623 23.1673 23.6508 23.3072C23.4421 23.4457 23.282 23.6461 23.1927 23.8801C23.091 24.1123 23.0644 24.3701 23.1164 24.6181C23.1633 24.864 23.283 25.0902 23.46 25.2672C23.6371 25.4442 23.8632 25.564 24.1092 25.6109C24.3572 25.663 24.6152 25.6362 24.8473 25.5344C25.0814 25.4453 25.2816 25.2852 25.4199 25.0764C25.5494 24.8849 25.6243 24.6616 25.6365 24.4308C25.6487 24.1999 25.5977 23.9699 25.4891 23.7658C25.3805 23.5617 25.2183 23.391 25.02 23.2721C24.8217 23.1532 24.5949 23.0906 24.3636 23.0909ZM34.5455 23.0909C34.2919 23.0922 34.0442 23.1673 33.8327 23.3072C33.624 23.4457 33.4638 23.6461 33.3745 23.8801C33.2728 24.1123 33.2462 24.3701 33.2982 24.6181C33.3451 24.864 33.4648 25.0902 33.6419 25.2672C33.8189 25.4442 34.045 25.564 34.291 25.6109C34.539 25.663 34.797 25.6362 35.0291 25.5344C35.2632 25.4453 35.4634 25.2852 35.6018 25.0764C35.7312 24.8849 35.8062 24.6616 35.8183 24.4308C35.8305 24.1999 35.7795 23.9699 35.6709 23.7658C35.5623 23.5617 35.4002 23.391 35.2019 23.2721C35.0036 23.1532 34.7767 23.0906 34.5455 23.0909ZM42.1818 18H21.8182C20.8055 18 19.8343 18.4022 19.1183 19.1183C18.4022 19.8343 18 20.8055 18 21.8182V42.1818C18 43.1945 18.4022 44.1657 19.1183 44.8817C19.8343 45.5977 20.8055 46 21.8182 46H42.1818C43.1945 46 44.1657 45.5977 44.8817 44.8817C45.5977 44.1657 46 43.1945 46 42.1818V21.8182C46 20.8055 45.5977 19.8343 44.8817 19.1183C44.1657 18.4022 43.1945 18 42.1818 18ZM43.4545 42.1818C43.4562 42.3494 43.4245 42.5157 43.3612 42.6709C43.2978 42.8261 43.2041 42.9672 43.0856 43.0857C42.967 43.2042 42.8261 43.2977 42.6709 43.361C42.5157 43.4244 42.3494 43.4562 42.1818 43.4545H21.8182C21.6506 43.4562 21.4843 43.4244 21.3291 43.361C21.1739 43.2977 21.033 43.2042 20.9144 43.0857C20.7959 42.9672 20.7022 42.8261 20.6388 42.6709C20.5755 42.5157 20.5438 42.3494 20.5455 42.1818V30.7273H43.4545V42.1818ZM43.4545 28.1818H20.5455V21.8182C20.5438 21.6506 20.5755 21.4843 20.6388 21.3291C20.7022 21.1739 20.7959 21.0328 20.9144 20.9143C21.033 20.7958 21.1739 20.7023 21.3291 20.639C21.4843 20.5756 21.6506 20.5438 21.8182 20.5455H42.1818C42.3494 20.5438 42.5157 20.5756 42.6709 20.639C42.8261 20.7023 42.967 20.7958 43.0856 20.9143C43.2041 21.0328 43.2978 21.1739 43.3612 21.3291C43.4245 21.4843 43.4562 21.6506 43.4545 21.8182V28.1818Z" fill="#6A6E75"/>
</svg>
