<svg width="64" height="64" viewBox="0 0 64 64" fill="none" xmlns="http://www.w3.org/2000/svg">
<rect width="64" height="64" rx="8" fill="#9B9EA3" fill-opacity="0.1"/>
<path d="M28.8889 35.5555H19.5556C19.3508 35.5535 19.1475 35.5924 18.9579 35.6699C18.7682 35.7473 18.5959 35.8615 18.4511 36.0063C18.3062 36.1512 18.1916 36.3237 18.1142 36.5133C18.0368 36.703 17.998 36.9062 18.0001 37.1111V46.4444C17.998 46.6492 18.0368 46.8525 18.1142 47.0421C18.1916 47.2318 18.3062 47.4043 18.4511 47.5491C18.5959 47.694 18.7682 47.8082 18.9579 47.8856C19.1475 47.963 19.3508 48.002 19.5556 47.9999H28.8889C29.0938 48.002 29.297 47.963 29.4867 47.8856C29.6763 47.8082 29.8486 47.694 29.9935 47.5491C30.1383 47.4043 30.2529 47.2318 30.3303 47.0421C30.4078 46.8525 30.4465 46.6492 30.4445 46.4444V37.1111C30.4465 36.9062 30.4078 36.703 30.3303 36.5133C30.2529 36.3237 30.1383 36.1512 29.9935 36.0063C29.8486 35.8615 29.6763 35.7473 29.4867 35.6699C29.297 35.5924 29.0938 35.5535 28.8889 35.5555ZM27.3334 44.8888H21.1112V38.6666H27.3334V44.8888ZM44.4444 20.0001H35.1111C34.9062 19.998 34.703 20.037 34.5133 20.1144C34.3237 20.1918 34.1514 20.306 34.0065 20.4509C33.8617 20.5957 33.7471 20.7682 33.6697 20.9579C33.5922 21.1475 33.5535 21.3508 33.5555 21.5556V30.8889C33.5535 31.0938 33.5922 31.297 33.6697 31.4867C33.7471 31.6763 33.8617 31.8488 34.0065 31.9937C34.1514 32.1385 34.3237 32.2527 34.5133 32.3301C34.703 32.4076 34.9062 32.4465 35.1111 32.4445H44.4444C44.6492 32.4465 44.8525 32.4076 45.0421 32.3301C45.2318 32.2527 45.4041 32.1385 45.5489 31.9937C45.6938 31.8488 45.8084 31.6763 45.8858 31.4867C45.9632 31.297 46.002 31.0938 45.9999 30.8889V21.5556C46.002 21.3508 45.9632 21.1475 45.8858 20.9579C45.8084 20.7682 45.6938 20.5957 45.5489 20.4509C45.4041 20.306 45.2318 20.1918 45.0421 20.1144C44.8525 20.037 44.6492 19.998 44.4444 20.0001ZM42.8888 29.3334H36.6666V23.1112H42.8888V29.3334ZM44.4444 40.2222H41.3333V37.1111C41.3333 36.6985 41.1695 36.303 40.8777 36.0113C40.586 35.7196 40.1903 35.5555 39.7777 35.5555C39.3652 35.5555 38.9694 35.7196 38.6777 36.0113C38.386 36.303 38.2222 36.6985 38.2222 37.1111V40.2222H35.1111C34.6985 40.2222 34.3028 40.3862 34.0111 40.6779C33.7194 40.9696 33.5555 41.3652 33.5555 41.7777C33.5555 42.1903 33.7194 42.5858 34.0111 42.8776C34.3028 43.1693 34.6985 43.3333 35.1111 43.3333H38.2222V46.4444C38.2222 46.8569 38.386 47.2525 38.6777 47.5442C38.9694 47.8359 39.3652 47.9999 39.7777 47.9999C40.1903 47.9999 40.586 47.8359 40.8777 47.5442C41.1695 47.2525 41.3333 46.8569 41.3333 46.4444V43.3333H44.4444C44.8569 43.3333 45.2527 43.1693 45.5444 42.8776C45.8361 42.5858 45.9999 42.1903 45.9999 41.7777C45.9999 41.3652 45.8361 40.9696 45.5444 40.6779C45.2527 40.3862 44.8569 40.2222 44.4444 40.2222ZM28.8889 20.0001H19.5556C19.3508 19.998 19.1475 20.037 18.9579 20.1144C18.7682 20.1918 18.5959 20.306 18.4511 20.4509C18.3062 20.5957 18.1916 20.7682 18.1142 20.9579C18.0368 21.1475 17.998 21.3508 18.0001 21.5556V30.8889C17.998 31.0938 18.0368 31.297 18.1142 31.4867C18.1916 31.6763 18.3062 31.8488 18.4511 31.9937C18.5959 32.1385 18.7682 32.2527 18.9579 32.3301C19.1475 32.4076 19.3508 32.4465 19.5556 32.4445H28.8889C29.0938 32.4465 29.297 32.4076 29.4867 32.3301C29.6763 32.2527 29.8486 32.1385 29.9935 31.9937C30.1383 31.8488 30.2529 31.6763 30.3303 31.4867C30.4078 31.297 30.4465 31.0938 30.4445 30.8889V21.5556C30.4465 21.3508 30.4078 21.1475 30.3303 20.9579C30.2529 20.7682 30.1383 20.5957 29.9935 20.4509C29.8486 20.306 29.6763 20.1918 29.4867 20.1144C29.297 20.037 29.0938 19.998 28.8889 20.0001ZM27.3334 29.3334H21.1112V23.1112H27.3334V29.3334Z" fill="#6A6E75"/>
<path d="M0 8C0 3.58172 3.58172 0 8 0H56C60.4183 0 64 3.58172 64 8V12H0V8Z" fill="#F5B118"/>
<path d="M6.245 6.55C6.245 6.06933 6.35233 5.64 6.567 5.262C6.78633 4.87933 7.08267 4.583 7.456 4.373C7.834 4.15833 8.25633 4.051 8.723 4.051C9.269 4.051 9.74733 4.191 10.158 4.471C10.5687 4.751 10.8557 5.13833 11.019 5.633L9.892 5.633C9.78 5.39967 9.62133 5.22467 9.416 5.108C9.21533 4.99133 8.982 4.933 8.716 4.933C8.43133 4.933 8.177 5.00067 7.953 5.136C7.73367 5.26667 7.561 5.45333 7.435 5.696C7.31367 5.93867 7.253 6.22333 7.253 6.55C7.253 6.872 7.31367 7.15667 7.435 7.404C7.561 7.64667 7.73367 7.83567 7.953 7.971C8.177 8.10167 8.43133 8.167 8.716 8.167C8.982 8.167 9.21533 8.10867 9.416 7.992C9.62133 7.87067 9.78 7.69333 9.892 7.46L11.019 7.46C10.8557 7.95933 10.5687 8.349 10.158 8.629C9.752 8.90433 9.27367 9.042 8.723 9.042C8.25633 9.042 7.834 8.937 7.456 8.727C7.08267 8.51233 6.78633 8.216 6.567 7.838C6.35233 7.46 6.245 7.03067 6.245 6.55ZM14.124 9.049C13.6667 9.049 13.2467 8.94167 12.864 8.727C12.4814 8.51233 12.178 8.216 11.954 7.838C11.73 7.45533 11.618 7.02367 11.618 6.543C11.618 6.067 11.73 5.64 11.954 5.262C12.178 4.87933 12.4814 4.58067 12.864 4.366C13.2467 4.15133 13.6667 4.044 14.124 4.044C14.586 4.044 15.006 4.15133 15.384 4.366C15.7667 4.58067 16.0677 4.87933 16.287 5.262C16.511 5.64 16.623 6.067 16.623 6.543C16.623 7.02367 16.511 7.45533 16.287 7.838C16.0677 8.216 15.7667 8.51233 15.384 8.727C15.0014 8.94167 14.5814 9.049 14.124 9.049ZM14.124 8.174C14.418 8.174 14.677 8.10867 14.901 7.978C15.125 7.84267 15.3 7.65133 15.426 7.404C15.552 7.15667 15.615 6.86967 15.615 6.543C15.615 6.21633 15.552 5.93167 15.426 5.689C15.3 5.44167 15.125 5.25267 14.901 5.122C14.677 4.99133 14.418 4.926 14.124 4.926C13.83 4.926 13.5687 4.99133 13.34 5.122C13.116 5.25267 12.941 5.44167 12.815 5.689C12.689 5.93167 12.626 6.21633 12.626 6.543C12.626 6.86967 12.689 7.15667 12.815 7.404C12.941 7.65133 13.116 7.84267 13.34 7.978C13.5687 8.10867 13.83 8.174 14.124 8.174ZM22.6791 4.114L22.6791 9L21.6991 9L21.6991 5.822L20.3901 9L19.6481 9L18.3321 5.822L18.3321 9L17.3521 9L17.3521 4.114L18.4651 4.114L20.0191 7.747L21.5731 4.114L22.6791 4.114ZM24.628 4.114L24.628 9L23.648 9L23.648 4.114L24.628 4.114ZM29.7753 9L28.7953 9L26.5763 5.647L26.5763 9L25.5963 9L25.5963 4.107L26.5763 4.107L28.7953 7.467L28.7953 4.107L29.7753 4.107L29.7753 9ZM34.1457 5.584C34.0337 5.37867 33.8797 5.22233 33.6837 5.115C33.4877 5.00767 33.2591 4.954 32.9977 4.954C32.7084 4.954 32.4517 5.01933 32.2277 5.15C32.0037 5.28067 31.8287 5.46733 31.7027 5.71C31.5767 5.95267 31.5137 6.23267 31.5137 6.55C31.5137 6.87667 31.5767 7.16133 31.7027 7.404C31.8334 7.64667 32.0131 7.83333 32.2417 7.964C32.4704 8.09467 32.7364 8.16 33.0397 8.16C33.4131 8.16 33.7187 8.062 33.9567 7.866C34.1947 7.66533 34.3511 7.38767 34.4257 7.033L32.7457 7.033L32.7457 6.284L35.3917 6.284L35.3917 7.138C35.3264 7.47867 35.1864 7.79367 34.9717 8.083C34.7571 8.37233 34.4794 8.60567 34.1387 8.783C33.8027 8.95567 33.4247 9.042 33.0047 9.042C32.5334 9.042 32.1064 8.937 31.7237 8.727C31.3457 8.51233 31.0471 8.216 30.8277 7.838C30.6131 7.46 30.5057 7.03067 30.5057 6.55C30.5057 6.06933 30.6131 5.64 30.8277 5.262C31.0471 4.87933 31.3457 4.583 31.7237 4.373C32.1064 4.15833 32.5311 4.051 32.9977 4.051C33.5484 4.051 34.0267 4.18633 34.4327 4.457C34.8387 4.723 35.1187 5.09867 35.2727 5.584L34.1457 5.584ZM39.4718 9.049C39.1311 9.049 38.8231 8.99067 38.5478 8.874C38.2771 8.75733 38.0624 8.58933 37.9038 8.37C37.7451 8.15067 37.6634 7.89167 37.6588 7.593L38.7088 7.593C38.7228 7.79367 38.7928 7.95233 38.9188 8.069C39.0494 8.18567 39.2268 8.244 39.4508 8.244C39.6794 8.244 39.8591 8.19033 39.9898 8.083C40.1204 7.971 40.1858 7.82633 40.1858 7.649C40.1858 7.50433 40.1414 7.38533 40.0528 7.292C39.9641 7.19867 39.8521 7.12633 39.7168 7.075C39.5861 7.019 39.4041 6.95833 39.1708 6.893C38.8534 6.79967 38.5944 6.70867 38.3938 6.62C38.1978 6.52667 38.0274 6.389 37.8828 6.207C37.7428 6.02033 37.6728 5.773 37.6728 5.465C37.6728 5.17567 37.7451 4.92367 37.8898 4.709C38.0344 4.49433 38.2374 4.331 38.4988 4.219C38.7601 4.10233 39.0588 4.044 39.3948 4.044C39.8988 4.044 40.3071 4.16767 40.6198 4.415C40.9371 4.65767 41.1121 4.99833 41.1448 5.437L40.0668 5.437C40.0574 5.269 39.9851 5.13133 39.8498 5.024C39.7191 4.912 39.5441 4.856 39.3248 4.856C39.1334 4.856 38.9794 4.905 38.8628 5.003C38.7508 5.101 38.6948 5.24333 38.6948 5.43C38.6948 5.56067 38.7368 5.67033 38.8208 5.759C38.9094 5.843 39.0168 5.913 39.1428 5.969C39.2734 6.02033 39.4554 6.081 39.6888 6.151C40.0061 6.24433 40.2651 6.33767 40.4658 6.431C40.6664 6.52433 40.8391 6.66433 40.9838 6.851C41.1284 7.03767 41.2008 7.28267 41.2008 7.586C41.2008 7.84733 41.1331 8.09 40.9978 8.314C40.8624 8.538 40.6641 8.71767 40.4028 8.853C40.1414 8.98367 39.8311 9.049 39.4718 9.049ZM44.3184 9.049C43.861 9.049 43.441 8.94167 43.0584 8.727C42.6757 8.51233 42.3724 8.216 42.1484 7.838C41.9244 7.45533 41.8124 7.02367 41.8124 6.543C41.8124 6.067 41.9244 5.64 42.1484 5.262C42.3724 4.87933 42.6757 4.58067 43.0584 4.366C43.441 4.15133 43.861 4.044 44.3184 4.044C44.7804 4.044 45.2004 4.15133 45.5784 4.366C45.961 4.58067 46.262 4.87933 46.4814 5.262C46.7054 5.64 46.8174 6.067 46.8174 6.543C46.8174 7.02367 46.7054 7.45533 46.4814 7.838C46.262 8.216 45.961 8.51233 45.5784 8.727C45.1957 8.94167 44.7757 9.049 44.3184 9.049ZM44.3184 8.174C44.6124 8.174 44.8714 8.10867 45.0954 7.978C45.3194 7.84267 45.4944 7.65133 45.6204 7.404C45.7464 7.15667 45.8094 6.86967 45.8094 6.543C45.8094 6.21633 45.7464 5.93167 45.6204 5.689C45.4944 5.44167 45.3194 5.25267 45.0954 5.122C44.8714 4.99133 44.6124 4.926 44.3184 4.926C44.0244 4.926 43.763 4.99133 43.5344 5.122C43.3104 5.25267 43.1354 5.44167 43.0094 5.689C42.8834 5.93167 42.8204 6.21633 42.8204 6.543C42.8204 6.86967 42.8834 7.15667 43.0094 7.404C43.1354 7.65133 43.3104 7.84267 43.5344 7.978C43.763 8.10867 44.0244 8.174 44.3184 8.174ZM49.8145 9.049C49.3571 9.049 48.9371 8.94167 48.5545 8.727C48.1718 8.51233 47.8685 8.216 47.6445 7.838C47.4205 7.45533 47.3085 7.02367 47.3085 6.543C47.3085 6.067 47.4205 5.64 47.6445 5.262C47.8685 4.87933 48.1718 4.58067 48.5545 4.366C48.9371 4.15133 49.3571 4.044 49.8145 4.044C50.2765 4.044 50.6965 4.15133 51.0745 4.366C51.4571 4.58067 51.7581 4.87933 51.9775 5.262C52.2015 5.64 52.3135 6.067 52.3135 6.543C52.3135 7.02367 52.2015 7.45533 51.9775 7.838C51.7581 8.216 51.4571 8.51233 51.0745 8.727C50.6918 8.94167 50.2718 9.049 49.8145 9.049ZM49.8145 8.174C50.1085 8.174 50.3675 8.10867 50.5915 7.978C50.8155 7.84267 50.9905 7.65133 51.1165 7.404C51.2425 7.15667 51.3055 6.86967 51.3055 6.543C51.3055 6.21633 51.2425 5.93167 51.1165 5.689C50.9905 5.44167 50.8155 5.25267 50.5915 5.122C50.3675 4.99133 50.1085 4.926 49.8145 4.926C49.5205 4.926 49.2591 4.99133 49.0305 5.122C48.8065 5.25267 48.6315 5.44167 48.5055 5.689C48.3795 5.93167 48.3165 6.21633 48.3165 6.543C48.3165 6.86967 48.3795 7.15667 48.5055 7.404C48.6315 7.65133 48.8065 7.84267 49.0305 7.978C49.2591 8.10867 49.5205 8.174 49.8145 8.174ZM57.2216 9L56.2416 9L54.0226 5.647L54.0226 9L53.0426 9L53.0426 4.107L54.0226 4.107L56.2416 7.467L56.2416 4.107L57.2216 4.107L57.2216 9Z" fill="white"/>
</svg>
