<svg width="64" height="64" viewBox="0 0 64 64" fill="none" xmlns="http://www.w3.org/2000/svg">
<rect opacity="0.1" width="64" height="64" rx="8" fill="#9B9EA3"/>
<path d="M32 42.1818C32.2789 42.1804 32.5515 42.0944 32.7841 41.9345C33.0136 41.7762 33.1898 41.5474 33.2881 41.28C33.3999 41.0147 33.4292 40.7199 33.372 40.4364C33.3204 40.1554 33.1887 39.8969 32.9939 39.6946C32.7992 39.4923 32.5505 39.3554 32.2799 39.3018C32.0071 39.2424 31.7233 39.2728 31.468 39.389C31.2106 39.4911 30.9904 39.6741 30.8381 39.9126C30.6956 40.1316 30.6132 40.3867 30.5998 40.6506C30.5864 40.9144 30.6425 41.1772 30.762 41.4105C30.8815 41.6438 31.0598 41.8389 31.278 41.9748C31.4961 42.1107 31.7457 42.1822 32 42.1818ZM39 42.1818C39.2789 42.1804 39.5515 42.0944 39.7841 41.9345C40.0136 41.7762 40.1898 41.5474 40.2881 41.28C40.3999 41.0147 40.4292 40.7199 40.372 40.4364C40.3204 40.1554 40.1887 39.8969 39.9939 39.6946C39.7992 39.4923 39.5505 39.3554 39.2799 39.3018C39.0071 39.2424 38.7233 39.2728 38.468 39.389C38.2106 39.4911 37.9904 39.6741 37.8381 39.9126C37.6956 40.1316 37.6132 40.3867 37.5998 40.6506C37.5864 40.9144 37.6425 41.1772 37.762 41.4105C37.8815 41.6438 38.0598 41.8389 38.278 41.9748C38.4961 42.1107 38.7457 42.1822 39 42.1818ZM39 36.3636C39.2789 36.3622 39.5515 36.2762 39.7841 36.1163C40.0136 35.958 40.1898 35.7293 40.2881 35.4618C40.3999 35.1966 40.4292 34.9017 40.372 34.6183C40.3204 34.3372 40.1887 34.0787 39.9939 33.8764C39.7992 33.6741 39.5505 33.5372 39.2799 33.4837C39.0071 33.4242 38.7233 33.4546 38.468 33.5708C38.2106 33.6729 37.9904 33.856 37.8381 34.0945C37.6956 34.3134 37.6132 34.5685 37.5998 34.8324C37.5864 35.0963 37.6425 35.359 37.762 35.5923C37.8815 35.8256 38.0598 36.0207 38.278 36.1566C38.4961 36.2925 38.7457 36.364 39 36.3636ZM32 36.3636C32.2789 36.3622 32.5515 36.2762 32.7841 36.1163C33.0136 35.958 33.1898 35.7293 33.2881 35.4618C33.3999 35.1966 33.4292 34.9017 33.372 34.6183C33.3204 34.3372 33.1887 34.0787 32.9939 33.8764C32.7992 33.6741 32.5505 33.5372 32.2799 33.4837C32.0071 33.4242 31.7233 33.4546 31.468 33.5708C31.2106 33.6729 30.9904 33.856 30.8381 34.0945C30.6956 34.3134 30.6132 34.5685 30.5998 34.8324C30.5864 35.0963 30.6425 35.359 30.762 35.5923C30.8815 35.8256 31.0598 36.0207 31.278 36.1566C31.4961 36.2925 31.7457 36.364 32 36.3636ZM41.8 18.9091H40.4V17.4545C40.4 17.0688 40.2526 16.6987 39.99 16.426C39.7275 16.1532 39.3713 16 39 16C38.6287 16 38.2725 16.1532 38.01 16.426C37.7474 16.6987 37.6 17.0688 37.6 17.4545V18.9091H26.4V17.4545C26.4 17.0688 26.2526 16.6987 25.99 16.426C25.7275 16.1532 25.3713 16 25 16C24.6287 16 24.2725 16.1532 24.01 16.426C23.7474 16.6987 23.6 17.0688 23.6 17.4545V18.9091H22.2C21.0861 18.9091 20.0178 19.3688 19.2301 20.1871C18.4425 21.0055 18 22.1154 18 23.2727V43.6364C18 44.7937 18.4425 45.9036 19.2301 46.7219C20.0178 47.5403 21.0861 48 22.2 48H41.8C42.9139 48 43.9822 47.5403 44.7699 46.7219C45.5575 45.9036 46 44.7937 46 43.6364V23.2727C46 22.1154 45.5575 21.0055 44.7699 20.1871C43.9822 19.3688 42.9139 18.9091 41.8 18.9091ZM43.2 43.6364C43.2019 43.8279 43.167 44.018 43.0973 44.1953C43.0276 44.3727 42.9245 44.5338 42.7941 44.6692C42.6637 44.8047 42.5087 44.9118 42.338 44.9842C42.1673 45.0566 41.9844 45.0929 41.8 45.0909H22.2C22.0156 45.0929 21.8327 45.0566 21.662 44.9842C21.4913 44.9118 21.3363 44.8047 21.2059 44.6692C21.0755 44.5338 20.9724 44.3727 20.9027 44.1953C20.833 44.018 20.7981 43.8279 20.8 43.6364V30.5455H43.2V43.6364ZM43.2 27.6364H20.8V23.2727C20.7981 23.0812 20.833 22.8911 20.9027 22.7138C20.9724 22.5364 21.0755 22.3753 21.2059 22.2399C21.3363 22.1044 21.4913 21.9973 21.662 21.9249C21.8327 21.8525 22.0156 21.8162 22.2 21.8182H23.6V23.2727C23.6 23.6585 23.7474 24.0285 24.01 24.3013C24.2725 24.5741 24.6287 24.7273 25 24.7273C25.3713 24.7273 25.7275 24.5741 25.99 24.3013C26.2526 24.0285 26.4 23.6585 26.4 23.2727V21.8182H37.6V23.2727C37.6 23.6585 37.7474 24.0285 38.01 24.3013C38.2725 24.5741 38.6287 24.7273 39 24.7273C39.3713 24.7273 39.7275 24.5741 39.99 24.3013C40.2526 24.0285 40.4 23.6585 40.4 23.2727V21.8182H41.8C41.9844 21.8162 42.1673 21.8525 42.338 21.9249C42.5087 21.9973 42.6637 22.1044 42.7941 22.2399C42.9245 22.3753 43.0276 22.5364 43.0973 22.7138C43.167 22.8911 43.2019 23.0812 43.2 23.2727V27.6364ZM25 36.3636C25.2789 36.3622 25.5515 36.2762 25.7841 36.1163C26.0136 35.958 26.1898 35.7293 26.2881 35.4618C26.3999 35.1966 26.4292 34.9017 26.372 34.6183C26.3204 34.3372 26.1887 34.0787 25.9939 33.8764C25.7992 33.6741 25.5505 33.5372 25.2799 33.4837C25.0071 33.4242 24.7233 33.4546 24.468 33.5708C24.2106 33.6729 23.9904 33.856 23.8381 34.0945C23.6956 34.3134 23.6132 34.5685 23.5998 34.8324C23.5864 35.0963 23.6425 35.359 23.762 35.5923C23.8815 35.8256 24.0598 36.0207 24.278 36.1566C24.4961 36.2925 24.7457 36.364 25 36.3636ZM25 42.1818C25.2789 42.1804 25.5515 42.0944 25.7841 41.9345C26.0136 41.7762 26.1898 41.5474 26.2881 41.28C26.3999 41.0147 26.4292 40.7199 26.372 40.4364C26.3204 40.1554 26.1887 39.8969 25.9939 39.6946C25.7992 39.4923 25.5505 39.3554 25.2799 39.3018C25.0071 39.2424 24.7233 39.2728 24.468 39.389C24.2106 39.4911 23.9904 39.6741 23.8381 39.9126C23.6956 40.1316 23.6132 40.3867 23.5998 40.6506C23.5864 40.9144 23.6425 41.1772 23.762 41.4105C23.8815 41.6438 24.0598 41.8389 24.278 41.9748C24.4961 42.1107 24.7457 42.1822 25 42.1818Z" fill="#6A6E75"/>
</svg>
