<svg width="64" height="64" viewBox="0 0 64 64" fill="none" xmlns="http://www.w3.org/2000/svg">
<rect width="64" height="64" rx="8" fill="#9B9EA3" fill-opacity="0.1"/>
<path d="M36.6234 35.7487C37.3407 35.1251 37.9161 34.3554 38.3111 33.4909C38.7062 32.6264 38.9117 31.6872 38.9138 30.7367C38.9138 28.95 38.2041 27.2363 36.9408 25.973C35.6774 24.7096 33.9638 24 32.1771 24C30.3904 24 28.6768 24.7096 27.4134 25.973C26.15 27.2363 25.4404 28.95 25.4404 30.7367C25.4424 31.6872 25.648 32.6264 26.043 33.4909C26.4381 34.3554 27.0135 35.1251 27.7308 35.7487C25.8457 36.604 24.2465 37.9834 23.1237 39.7226C22.0009 41.4618 21.4019 43.4872 21.3984 45.5573C21.3984 45.9146 21.5405 46.2572 21.7932 46.5099C22.0458 46.7626 22.3884 46.9046 22.7458 46.9046C23.1031 46.9046 23.4457 46.7626 23.6984 46.5099C23.951 46.2572 24.0931 45.9146 24.0931 45.5573C24.0931 43.4133 24.9448 41.3571 26.4608 39.841C27.9768 38.325 30.0331 37.4733 32.1771 37.4733C34.3211 37.4733 36.3773 38.325 37.8934 39.841C39.4094 41.3571 40.2611 43.4133 40.2611 45.5573C40.2611 45.9146 40.4031 46.2572 40.6558 46.5099C40.9085 46.7626 41.2511 46.9046 41.6084 46.9046C41.9658 46.9046 42.3083 46.7626 42.561 46.5099C42.8137 46.2572 42.9557 45.9146 42.9557 45.5573C42.9523 43.4872 42.3533 41.4618 41.2305 39.7226C40.1077 37.9834 38.5085 36.604 36.6234 35.7487ZM32.1771 34.7787C31.3786 34.7772 30.5984 34.5399 29.9344 34.0964C29.2704 33.653 28.7522 33.023 28.445 32.286C28.1388 31.5473 28.0588 30.7347 28.2147 29.9505C28.3706 29.1663 28.7555 28.4459 29.3209 27.8805C29.8863 27.3151 30.6067 26.9302 31.3909 26.7743C32.1751 26.6184 32.9878 26.6984 33.7264 27.0045C34.5892 27.3633 35.3011 28.0099 35.7408 28.8344C36.1805 29.6589 36.3211 30.6104 36.1385 31.5268C35.9559 32.4432 35.4614 33.268 34.7392 33.8609C34.017 34.4538 33.1115 34.778 32.1771 34.7787ZM45.3001 35.2099C45.9435 34.4833 46.4226 33.6264 46.7047 32.6978C46.9868 31.7692 47.0654 30.7905 46.9349 29.8288C46.8045 28.8671 46.468 27.9448 45.9488 27.1249C45.4295 26.305 44.7395 25.6069 43.9258 25.0779C42.8321 24.3763 41.5605 24.0022 40.2611 24C39.9037 24 39.5612 24.1421 39.3085 24.3947C39.0558 24.6474 38.9138 24.99 38.9138 25.3473C38.9138 25.7047 39.0558 26.0473 39.3085 26.2999C39.5612 26.5526 39.9037 26.6947 40.2611 26.6947C41.3331 26.6947 42.3612 27.1205 43.1192 27.8785C43.8773 28.6365 44.3031 29.6647 44.3031 30.7367C44.3017 31.4457 44.1161 32.1421 43.7643 32.7577C43.4022 33.3645 42.8922 33.8698 42.2821 34.2264C42.0862 34.3441 41.9201 34.5053 41.7969 34.6977C41.6757 34.8968 41.6107 35.1249 41.6084 35.3579C41.6028 35.5868 41.6539 35.8136 41.7568 36.0181C41.8649 36.2203 42.0223 36.3919 42.2146 36.5168L42.7403 36.8671L42.9153 36.9615C44.5378 37.7338 45.9067 38.9524 46.8612 40.4749C47.8158 41.9974 48.3164 43.7604 48.3046 45.5573C48.3046 45.9146 48.4467 46.2572 48.6993 46.5099C48.952 46.7626 49.2946 46.9046 49.652 46.9046C50.0093 46.9046 50.3519 46.7626 50.6046 46.5099C50.8572 46.2572 50.9993 45.9146 50.9993 45.5573C51.0077 43.4902 50.4887 41.4553 49.4914 39.6446C48.4942 37.834 47.0517 36.3076 45.3001 35.2099Z" fill="#6A6E75"/>
<path d="M19.6994 35.3181C19.056 34.5845 18.5769 33.7193 18.2948 32.7817C18.0127 31.8442 17.9341 30.856 18.0645 29.8851C18.195 28.9141 18.5314 27.9829 19.0507 27.1551C19.57 26.3273 20.26 25.6224 21.0737 25.0883C22.1673 24.3799 23.439 24.0022 24.7384 24C25.0957 24 25.4383 24.1434 25.691 24.3985C25.9436 24.6536 26.0857 24.9996 26.0857 25.3603C26.0857 25.7211 25.9436 26.067 25.691 26.3221C25.4383 26.5773 25.0957 26.7207 24.7384 26.7207C23.6664 26.7207 22.6382 27.1506 21.8802 27.916C21.1222 28.6813 20.6964 29.7193 20.6964 30.8017C20.6977 31.5175 20.8833 32.2207 21.2352 32.8422C21.5973 33.4549 22.1073 33.9651 22.7174 34.3251C22.9132 34.4439 23.0794 34.6067 23.2025 34.801C23.3238 35.002 23.3888 35.2323 23.391 35.4676C23.3966 35.6987 23.3456 35.9276 23.2427 36.1341C23.1345 36.3382 22.9771 36.5115 22.7848 36.6376L22.2592 36.9913L22.0842 37.0866C20.4616 37.8663 19.0927 39.0967 18.1382 40.6339C17.1837 42.1711 16.6831 43.9511 16.6948 45.7654C16.6948 46.1262 16.5528 46.4721 16.3001 46.7272C16.0474 46.9823 15.7048 47.1257 15.3475 47.1257C14.9902 47.1257 14.6476 46.9823 14.3949 46.7272C14.1422 46.4721 14.0002 46.1262 14.0002 45.7654C13.9917 43.6784 14.5108 41.6238 15.508 39.7957C16.5053 37.9675 17.9478 36.4264 19.6994 35.3181Z" fill="#6A6E75"/>
<path d="M0 8C0 3.58172 3.58172 0 8 0H56C60.4183 0 64 3.58172 64 8V12H0V8Z" fill="#F5B118"/>
<path d="M6.245 6.55C6.245 6.06933 6.35233 5.64 6.567 5.262C6.78633 4.87933 7.08267 4.583 7.456 4.373C7.834 4.15833 8.25633 4.051 8.723 4.051C9.269 4.051 9.74733 4.191 10.158 4.471C10.5687 4.751 10.8557 5.13833 11.019 5.633L9.892 5.633C9.78 5.39967 9.62133 5.22467 9.416 5.108C9.21533 4.99133 8.982 4.933 8.716 4.933C8.43133 4.933 8.177 5.00067 7.953 5.136C7.73367 5.26667 7.561 5.45333 7.435 5.696C7.31367 5.93867 7.253 6.22333 7.253 6.55C7.253 6.872 7.31367 7.15667 7.435 7.404C7.561 7.64667 7.73367 7.83567 7.953 7.971C8.177 8.10167 8.43133 8.167 8.716 8.167C8.982 8.167 9.21533 8.10867 9.416 7.992C9.62133 7.87067 9.78 7.69333 9.892 7.46L11.019 7.46C10.8557 7.95933 10.5687 8.349 10.158 8.629C9.752 8.90433 9.27367 9.042 8.723 9.042C8.25633 9.042 7.834 8.937 7.456 8.727C7.08267 8.51233 6.78633 8.216 6.567 7.838C6.35233 7.46 6.245 7.03067 6.245 6.55ZM14.124 9.049C13.6667 9.049 13.2467 8.94167 12.864 8.727C12.4814 8.51233 12.178 8.216 11.954 7.838C11.73 7.45533 11.618 7.02367 11.618 6.543C11.618 6.067 11.73 5.64 11.954 5.262C12.178 4.87933 12.4814 4.58067 12.864 4.366C13.2467 4.15133 13.6667 4.044 14.124 4.044C14.586 4.044 15.006 4.15133 15.384 4.366C15.7667 4.58067 16.0677 4.87933 16.287 5.262C16.511 5.64 16.623 6.067 16.623 6.543C16.623 7.02367 16.511 7.45533 16.287 7.838C16.0677 8.216 15.7667 8.51233 15.384 8.727C15.0014 8.94167 14.5814 9.049 14.124 9.049ZM14.124 8.174C14.418 8.174 14.677 8.10867 14.901 7.978C15.125 7.84267 15.3 7.65133 15.426 7.404C15.552 7.15667 15.615 6.86967 15.615 6.543C15.615 6.21633 15.552 5.93167 15.426 5.689C15.3 5.44167 15.125 5.25267 14.901 5.122C14.677 4.99133 14.418 4.926 14.124 4.926C13.83 4.926 13.5687 4.99133 13.34 5.122C13.116 5.25267 12.941 5.44167 12.815 5.689C12.689 5.93167 12.626 6.21633 12.626 6.543C12.626 6.86967 12.689 7.15667 12.815 7.404C12.941 7.65133 13.116 7.84267 13.34 7.978C13.5687 8.10867 13.83 8.174 14.124 8.174ZM22.6791 4.114L22.6791 9L21.6991 9L21.6991 5.822L20.3901 9L19.6481 9L18.3321 5.822L18.3321 9L17.3521 9L17.3521 4.114L18.4651 4.114L20.0191 7.747L21.5731 4.114L22.6791 4.114ZM24.628 4.114L24.628 9L23.648 9L23.648 4.114L24.628 4.114ZM29.7753 9L28.7953 9L26.5763 5.647L26.5763 9L25.5963 9L25.5963 4.107L26.5763 4.107L28.7953 7.467L28.7953 4.107L29.7753 4.107L29.7753 9ZM34.1457 5.584C34.0337 5.37867 33.8797 5.22233 33.6837 5.115C33.4877 5.00767 33.2591 4.954 32.9977 4.954C32.7084 4.954 32.4517 5.01933 32.2277 5.15C32.0037 5.28067 31.8287 5.46733 31.7027 5.71C31.5767 5.95267 31.5137 6.23267 31.5137 6.55C31.5137 6.87667 31.5767 7.16133 31.7027 7.404C31.8334 7.64667 32.0131 7.83333 32.2417 7.964C32.4704 8.09467 32.7364 8.16 33.0397 8.16C33.4131 8.16 33.7187 8.062 33.9567 7.866C34.1947 7.66533 34.3511 7.38767 34.4257 7.033L32.7457 7.033L32.7457 6.284L35.3917 6.284L35.3917 7.138C35.3264 7.47867 35.1864 7.79367 34.9717 8.083C34.7571 8.37233 34.4794 8.60567 34.1387 8.783C33.8027 8.95567 33.4247 9.042 33.0047 9.042C32.5334 9.042 32.1064 8.937 31.7237 8.727C31.3457 8.51233 31.0471 8.216 30.8277 7.838C30.6131 7.46 30.5057 7.03067 30.5057 6.55C30.5057 6.06933 30.6131 5.64 30.8277 5.262C31.0471 4.87933 31.3457 4.583 31.7237 4.373C32.1064 4.15833 32.5311 4.051 32.9977 4.051C33.5484 4.051 34.0267 4.18633 34.4327 4.457C34.8387 4.723 35.1187 5.09867 35.2727 5.584L34.1457 5.584ZM39.4718 9.049C39.1311 9.049 38.8231 8.99067 38.5478 8.874C38.2771 8.75733 38.0624 8.58933 37.9038 8.37C37.7451 8.15067 37.6634 7.89167 37.6588 7.593L38.7088 7.593C38.7228 7.79367 38.7928 7.95233 38.9188 8.069C39.0494 8.18567 39.2268 8.244 39.4508 8.244C39.6794 8.244 39.8591 8.19033 39.9898 8.083C40.1204 7.971 40.1858 7.82633 40.1858 7.649C40.1858 7.50433 40.1414 7.38533 40.0528 7.292C39.9641 7.19867 39.8521 7.12633 39.7168 7.075C39.5861 7.019 39.4041 6.95833 39.1708 6.893C38.8534 6.79967 38.5944 6.70867 38.3938 6.62C38.1978 6.52667 38.0274 6.389 37.8828 6.207C37.7428 6.02033 37.6728 5.773 37.6728 5.465C37.6728 5.17567 37.7451 4.92367 37.8898 4.709C38.0344 4.49433 38.2374 4.331 38.4988 4.219C38.7601 4.10233 39.0588 4.044 39.3948 4.044C39.8988 4.044 40.3071 4.16767 40.6198 4.415C40.9371 4.65767 41.1121 4.99833 41.1448 5.437L40.0668 5.437C40.0574 5.269 39.9851 5.13133 39.8498 5.024C39.7191 4.912 39.5441 4.856 39.3248 4.856C39.1334 4.856 38.9794 4.905 38.8628 5.003C38.7508 5.101 38.6948 5.24333 38.6948 5.43C38.6948 5.56067 38.7368 5.67033 38.8208 5.759C38.9094 5.843 39.0168 5.913 39.1428 5.969C39.2734 6.02033 39.4554 6.081 39.6888 6.151C40.0061 6.24433 40.2651 6.33767 40.4658 6.431C40.6664 6.52433 40.8391 6.66433 40.9838 6.851C41.1284 7.03767 41.2008 7.28267 41.2008 7.586C41.2008 7.84733 41.1331 8.09 40.9978 8.314C40.8624 8.538 40.6641 8.71767 40.4028 8.853C40.1414 8.98367 39.8311 9.049 39.4718 9.049ZM44.3184 9.049C43.861 9.049 43.441 8.94167 43.0584 8.727C42.6757 8.51233 42.3724 8.216 42.1484 7.838C41.9244 7.45533 41.8124 7.02367 41.8124 6.543C41.8124 6.067 41.9244 5.64 42.1484 5.262C42.3724 4.87933 42.6757 4.58067 43.0584 4.366C43.441 4.15133 43.861 4.044 44.3184 4.044C44.7804 4.044 45.2004 4.15133 45.5784 4.366C45.961 4.58067 46.262 4.87933 46.4814 5.262C46.7054 5.64 46.8174 6.067 46.8174 6.543C46.8174 7.02367 46.7054 7.45533 46.4814 7.838C46.262 8.216 45.961 8.51233 45.5784 8.727C45.1957 8.94167 44.7757 9.049 44.3184 9.049ZM44.3184 8.174C44.6124 8.174 44.8714 8.10867 45.0954 7.978C45.3194 7.84267 45.4944 7.65133 45.6204 7.404C45.7464 7.15667 45.8094 6.86967 45.8094 6.543C45.8094 6.21633 45.7464 5.93167 45.6204 5.689C45.4944 5.44167 45.3194 5.25267 45.0954 5.122C44.8714 4.99133 44.6124 4.926 44.3184 4.926C44.0244 4.926 43.763 4.99133 43.5344 5.122C43.3104 5.25267 43.1354 5.44167 43.0094 5.689C42.8834 5.93167 42.8204 6.21633 42.8204 6.543C42.8204 6.86967 42.8834 7.15667 43.0094 7.404C43.1354 7.65133 43.3104 7.84267 43.5344 7.978C43.763 8.10867 44.0244 8.174 44.3184 8.174ZM49.8145 9.049C49.3571 9.049 48.9371 8.94167 48.5545 8.727C48.1718 8.51233 47.8685 8.216 47.6445 7.838C47.4205 7.45533 47.3085 7.02367 47.3085 6.543C47.3085 6.067 47.4205 5.64 47.6445 5.262C47.8685 4.87933 48.1718 4.58067 48.5545 4.366C48.9371 4.15133 49.3571 4.044 49.8145 4.044C50.2765 4.044 50.6965 4.15133 51.0745 4.366C51.4571 4.58067 51.7581 4.87933 51.9775 5.262C52.2015 5.64 52.3135 6.067 52.3135 6.543C52.3135 7.02367 52.2015 7.45533 51.9775 7.838C51.7581 8.216 51.4571 8.51233 51.0745 8.727C50.6918 8.94167 50.2718 9.049 49.8145 9.049ZM49.8145 8.174C50.1085 8.174 50.3675 8.10867 50.5915 7.978C50.8155 7.84267 50.9905 7.65133 51.1165 7.404C51.2425 7.15667 51.3055 6.86967 51.3055 6.543C51.3055 6.21633 51.2425 5.93167 51.1165 5.689C50.9905 5.44167 50.8155 5.25267 50.5915 5.122C50.3675 4.99133 50.1085 4.926 49.8145 4.926C49.5205 4.926 49.2591 4.99133 49.0305 5.122C48.8065 5.25267 48.6315 5.44167 48.5055 5.689C48.3795 5.93167 48.3165 6.21633 48.3165 6.543C48.3165 6.86967 48.3795 7.15667 48.5055 7.404C48.6315 7.65133 48.8065 7.84267 49.0305 7.978C49.2591 8.10867 49.5205 8.174 49.8145 8.174ZM57.2216 9L56.2416 9L54.0226 5.647L54.0226 9L53.0426 9L53.0426 4.107L54.0226 4.107L56.2416 7.467L56.2416 4.107L57.2216 4.107L57.2216 9Z" fill="white"/>
</svg>
