<svg width="64" height="64" viewBox="0 0 64 64" fill="none" xmlns="http://www.w3.org/2000/svg">
<path d="M0 8C0 3.58172 3.58172 0 8 0H56C60.4183 0 64 3.58172 64 8V64H8C3.58172 64 0 60.4183 0 56V8Z" fill="#9B9EA3" fill-opacity="0.1"/>
<path d="M38.115 39.8489L38.0615 39.6562C38.9387 39.4127 39.4907 39.1584 39.8239 38.9553C39.9906 38.8538 40.1006 38.7662 40.1688 38.7009C40.2054 38.6658 40.2263 38.6406 40.2375 38.6259V35.6108C39.8557 35.7807 39.4276 35.9368 38.9559 36.0783M38.115 39.8489L23.7625 35.3916C24.1551 35.5715 24.6023 35.737 25.1016 35.8867M38.115 39.8489L38.0615 39.6562C36.4258 40.1102 34.2731 40.3625 32 40.3625C29.7269 40.3625 27.5742 40.1102 25.9385 39.6562L25.885 39.8489L25.9385 39.6562C25.0613 39.4127 24.5093 39.1584 24.1761 38.9553C24.0094 38.8538 23.8994 38.7662 23.8312 38.7009C23.7946 38.6658 23.7737 38.6406 23.7625 38.6259V35.611L38.115 39.8489ZM38.9559 36.0783L38.8984 35.8867M38.9559 36.0783C38.9559 36.0783 38.9559 36.0783 38.9559 36.0783L38.8984 35.8867M38.9559 36.0783C37.0767 36.642 34.6061 36.95 32 36.95C29.3939 36.95 26.9233 36.642 25.0441 36.0783C25.0441 36.0783 25.0441 36.0783 25.0441 36.0783L25.1016 35.8867M38.8984 35.8867C39.3977 35.737 39.8449 35.5713 40.2375 35.3914L25.1016 35.8867M38.8984 35.8867C37.043 36.4434 34.5928 36.75 32 36.75C29.4072 36.75 26.957 36.4434 25.1016 35.8867M25.9385 33.9687L25.9385 33.9687C25.0613 33.7252 24.5093 33.4709 24.1761 33.2678C24.0094 33.1663 23.8994 33.0787 23.8312 33.0134C23.7946 32.9783 23.7737 32.9531 23.7625 32.9384V29.986C24.1443 30.1559 24.5724 30.3118 25.0441 30.4533C26.9233 31.017 29.3939 31.325 32 31.325C34.6061 31.325 37.0767 31.017 38.9559 30.4533C39.4276 30.3118 39.8557 30.1557 40.2375 29.9858V32.9384C40.2263 32.9531 40.2054 32.9783 40.1688 33.0134C40.1006 33.0787 39.9906 33.1663 39.8239 33.2678C39.4907 33.4709 38.9387 33.7252 38.0615 33.9687L38.1136 34.1564L38.0615 33.9687C36.4258 34.4227 34.2731 34.675 32 34.675C29.7269 34.675 27.5742 34.4227 25.9385 33.9687ZM25.9385 28.3437L25.9385 28.3437C25.0613 28.1002 24.5093 27.8459 24.1761 27.6428C24.0094 27.5413 23.8994 27.4537 23.8312 27.3884C23.7946 27.3533 23.7737 27.3281 23.7625 27.3134V24.3611C24.1443 24.5309 24.5724 24.6868 25.0441 24.8283C26.9233 25.392 29.3939 25.7 32 25.7C34.6061 25.7 37.0767 25.392 38.9559 24.8283C39.4276 24.6868 39.8557 24.5307 40.2375 24.3608V27.3134C40.2263 27.3281 40.2054 27.3533 40.1688 27.3884C40.1006 27.4537 39.9906 27.5413 39.8239 27.6428C39.4907 27.8459 38.9387 28.1002 38.0615 28.3437L38.115 28.5364L38.0615 28.3437C36.4258 28.7977 34.2731 29.05 32 29.05C29.7269 29.05 27.5742 28.7977 25.9385 28.3437ZM25.9385 20.7813L25.885 20.5886L25.9385 20.7813C27.5742 20.3273 29.7269 20.075 32 20.075C34.2731 20.075 36.4258 20.3273 38.0615 20.7813C38.9169 21.0188 39.4631 21.2666 39.7989 21.4672C39.9668 21.5675 40.0803 21.655 40.1532 21.722C40.164 21.732 40.1737 21.7413 40.1824 21.75C40.1737 21.7586 40.164 21.768 40.1532 21.7779C40.0803 21.845 39.9667 21.9325 39.7988 22.0328C39.463 22.2334 38.9167 22.4812 38.0615 22.7187C36.4258 23.1727 34.2731 23.425 32 23.425C29.7269 23.425 27.5742 23.1727 25.9385 22.7187C25.0831 22.4812 24.5369 22.2334 24.2011 22.0328C24.0332 21.9325 23.9197 21.845 23.8468 21.778C23.836 21.768 23.8263 21.7587 23.8176 21.75C23.8263 21.7413 23.836 21.732 23.8468 21.722C23.9197 21.655 24.0332 21.5675 24.2011 21.4672C24.5369 21.2666 25.0831 21.0188 25.9385 20.7813ZM45.1875 44.175C43.928 44.175 42.8482 44.9518 42.3985 46.05H34.789C34.483 45.3022 33.8853 44.7045 33.1375 44.3985V42.6176C35.318 42.5414 37.352 42.2469 38.9559 41.7658C39.7193 41.5368 40.597 41.2022 41.2877 40.716C41.9785 40.2297 42.5125 39.5686 42.5125 38.6875V21.75C42.5125 20.8689 41.9785 20.2078 41.2877 19.7215C40.597 19.2353 39.7193 18.9007 38.9559 18.6717C37.0767 18.108 34.6061 17.8 32 17.8C29.3939 17.8 26.9233 18.108 25.0441 18.6717C24.2807 18.9007 23.403 19.2353 22.7123 19.7215C22.0215 20.2078 21.4875 20.8689 21.4875 21.75V38.6875C21.4875 39.2341 21.7151 40.0091 22.7037 40.71C23.283 41.1211 24.0732 41.4746 25.0441 41.7658C26.6482 42.2469 28.682 42.5414 30.8625 42.6176V44.3985C30.1147 44.7045 29.517 45.3022 29.211 46.05H21.6015C21.1518 44.9518 20.072 44.175 18.8125 44.175C17.1513 44.175 15.8 45.5263 15.8 47.1875C15.8 48.8487 17.1513 50.2 18.8125 50.2C20.072 50.2 21.1518 49.4232 21.6015 48.325H29.211C29.6607 49.4232 30.7405 50.2 32 50.2C33.2595 50.2 34.3393 49.4232 34.789 48.325H42.3985C42.8482 49.4232 43.928 50.2 45.1875 50.2C46.8487 50.2 48.2 48.8487 48.2 47.1875C48.2 45.5263 46.8487 44.175 45.1875 44.175ZM40.4375 35.5186V38.6775V35.5186ZM18.8125 47.925C18.4061 47.925 18.075 47.5939 18.075 47.1875C18.075 46.7811 18.4061 46.45 18.8125 46.45C19.2189 46.45 19.55 46.7811 19.55 47.1875C19.55 47.5939 19.2189 47.925 18.8125 47.925ZM32 47.925C31.5936 47.925 31.2625 47.5939 31.2625 47.1875C31.2625 46.7811 31.5936 46.45 32 46.45C32.4064 46.45 32.7375 46.7811 32.7375 47.1875C32.7375 47.5939 32.4064 47.925 32 47.925ZM45.1875 47.925C44.7811 47.925 44.45 47.5939 44.45 47.1875C44.45 46.7811 44.7811 46.45 45.1875 46.45C45.5939 46.45 45.925 46.7811 45.925 47.1875C45.925 47.5939 45.5939 47.925 45.1875 47.925Z" fill="#6A6E75" stroke="#6A6E75" stroke-width="0.4"/>
<path d="M0 8C0 3.58172 3.58172 0 8 0H56C60.4183 0 64 3.58172 64 8V12H0V8Z" fill="#F5B118"/>
<path d="M6.245 6.55C6.245 6.06933 6.35233 5.64 6.567 5.262C6.78633 4.87933 7.08267 4.583 7.456 4.373C7.834 4.15833 8.25633 4.051 8.723 4.051C9.269 4.051 9.74733 4.191 10.158 4.471C10.5687 4.751 10.8557 5.13833 11.019 5.633L9.892 5.633C9.78 5.39967 9.62133 5.22467 9.416 5.108C9.21533 4.99133 8.982 4.933 8.716 4.933C8.43133 4.933 8.177 5.00067 7.953 5.136C7.73367 5.26667 7.561 5.45333 7.435 5.696C7.31367 5.93867 7.253 6.22333 7.253 6.55C7.253 6.872 7.31367 7.15667 7.435 7.404C7.561 7.64667 7.73367 7.83567 7.953 7.971C8.177 8.10167 8.43133 8.167 8.716 8.167C8.982 8.167 9.21533 8.10867 9.416 7.992C9.62133 7.87067 9.78 7.69333 9.892 7.46L11.019 7.46C10.8557 7.95933 10.5687 8.349 10.158 8.629C9.752 8.90433 9.27367 9.042 8.723 9.042C8.25633 9.042 7.834 8.937 7.456 8.727C7.08267 8.51233 6.78633 8.216 6.567 7.838C6.35233 7.46 6.245 7.03067 6.245 6.55ZM14.124 9.049C13.6667 9.049 13.2467 8.94167 12.864 8.727C12.4814 8.51233 12.178 8.216 11.954 7.838C11.73 7.45533 11.618 7.02367 11.618 6.543C11.618 6.067 11.73 5.64 11.954 5.262C12.178 4.87933 12.4814 4.58067 12.864 4.366C13.2467 4.15133 13.6667 4.044 14.124 4.044C14.586 4.044 15.006 4.15133 15.384 4.366C15.7667 4.58067 16.0677 4.87933 16.287 5.262C16.511 5.64 16.623 6.067 16.623 6.543C16.623 7.02367 16.511 7.45533 16.287 7.838C16.0677 8.216 15.7667 8.51233 15.384 8.727C15.0014 8.94167 14.5814 9.049 14.124 9.049ZM14.124 8.174C14.418 8.174 14.677 8.10867 14.901 7.978C15.125 7.84267 15.3 7.65133 15.426 7.404C15.552 7.15667 15.615 6.86967 15.615 6.543C15.615 6.21633 15.552 5.93167 15.426 5.689C15.3 5.44167 15.125 5.25267 14.901 5.122C14.677 4.99133 14.418 4.926 14.124 4.926C13.83 4.926 13.5687 4.99133 13.34 5.122C13.116 5.25267 12.941 5.44167 12.815 5.689C12.689 5.93167 12.626 6.21633 12.626 6.543C12.626 6.86967 12.689 7.15667 12.815 7.404C12.941 7.65133 13.116 7.84267 13.34 7.978C13.5687 8.10867 13.83 8.174 14.124 8.174ZM22.6791 4.114L22.6791 9L21.6991 9L21.6991 5.822L20.3901 9L19.6481 9L18.3321 5.822L18.3321 9L17.3521 9L17.3521 4.114L18.4651 4.114L20.0191 7.747L21.5731 4.114L22.6791 4.114ZM24.628 4.114L24.628 9L23.648 9L23.648 4.114L24.628 4.114ZM29.7753 9L28.7953 9L26.5763 5.647L26.5763 9L25.5963 9L25.5963 4.107L26.5763 4.107L28.7953 7.467L28.7953 4.107L29.7753 4.107L29.7753 9ZM34.1457 5.584C34.0337 5.37867 33.8797 5.22233 33.6837 5.115C33.4877 5.00767 33.2591 4.954 32.9977 4.954C32.7084 4.954 32.4517 5.01933 32.2277 5.15C32.0037 5.28067 31.8287 5.46733 31.7027 5.71C31.5767 5.95267 31.5137 6.23267 31.5137 6.55C31.5137 6.87667 31.5767 7.16133 31.7027 7.404C31.8334 7.64667 32.0131 7.83333 32.2417 7.964C32.4704 8.09467 32.7364 8.16 33.0397 8.16C33.4131 8.16 33.7187 8.062 33.9567 7.866C34.1947 7.66533 34.3511 7.38767 34.4257 7.033L32.7457 7.033L32.7457 6.284L35.3917 6.284L35.3917 7.138C35.3264 7.47867 35.1864 7.79367 34.9717 8.083C34.7571 8.37233 34.4794 8.60567 34.1387 8.783C33.8027 8.95567 33.4247 9.042 33.0047 9.042C32.5334 9.042 32.1064 8.937 31.7237 8.727C31.3457 8.51233 31.0471 8.216 30.8277 7.838C30.6131 7.46 30.5057 7.03067 30.5057 6.55C30.5057 6.06933 30.6131 5.64 30.8277 5.262C31.0471 4.87933 31.3457 4.583 31.7237 4.373C32.1064 4.15833 32.5311 4.051 32.9977 4.051C33.5484 4.051 34.0267 4.18633 34.4327 4.457C34.8387 4.723 35.1187 5.09867 35.2727 5.584L34.1457 5.584ZM39.4718 9.049C39.1311 9.049 38.8231 8.99067 38.5478 8.874C38.2771 8.75733 38.0624 8.58933 37.9038 8.37C37.7451 8.15067 37.6634 7.89167 37.6588 7.593L38.7088 7.593C38.7228 7.79367 38.7928 7.95233 38.9188 8.069C39.0494 8.18567 39.2268 8.244 39.4508 8.244C39.6794 8.244 39.8591 8.19033 39.9898 8.083C40.1204 7.971 40.1858 7.82633 40.1858 7.649C40.1858 7.50433 40.1414 7.38533 40.0528 7.292C39.9641 7.19867 39.8521 7.12633 39.7168 7.075C39.5861 7.019 39.4041 6.95833 39.1708 6.893C38.8534 6.79967 38.5944 6.70867 38.3938 6.62C38.1978 6.52667 38.0274 6.389 37.8828 6.207C37.7428 6.02033 37.6728 5.773 37.6728 5.465C37.6728 5.17567 37.7451 4.92367 37.8898 4.709C38.0344 4.49433 38.2374 4.331 38.4988 4.219C38.7601 4.10233 39.0588 4.044 39.3948 4.044C39.8988 4.044 40.3071 4.16767 40.6198 4.415C40.9371 4.65767 41.1121 4.99833 41.1448 5.437L40.0668 5.437C40.0574 5.269 39.9851 5.13133 39.8498 5.024C39.7191 4.912 39.5441 4.856 39.3248 4.856C39.1334 4.856 38.9794 4.905 38.8628 5.003C38.7508 5.101 38.6948 5.24333 38.6948 5.43C38.6948 5.56067 38.7368 5.67033 38.8208 5.759C38.9094 5.843 39.0168 5.913 39.1428 5.969C39.2734 6.02033 39.4554 6.081 39.6888 6.151C40.0061 6.24433 40.2651 6.33767 40.4658 6.431C40.6664 6.52433 40.8391 6.66433 40.9838 6.851C41.1284 7.03767 41.2008 7.28267 41.2008 7.586C41.2008 7.84733 41.1331 8.09 40.9978 8.314C40.8624 8.538 40.6641 8.71767 40.4028 8.853C40.1414 8.98367 39.8311 9.049 39.4718 9.049ZM44.3184 9.049C43.861 9.049 43.441 8.94167 43.0584 8.727C42.6757 8.51233 42.3724 8.216 42.1484 7.838C41.9244 7.45533 41.8124 7.02367 41.8124 6.543C41.8124 6.067 41.9244 5.64 42.1484 5.262C42.3724 4.87933 42.6757 4.58067 43.0584 4.366C43.441 4.15133 43.861 4.044 44.3184 4.044C44.7804 4.044 45.2004 4.15133 45.5784 4.366C45.961 4.58067 46.262 4.87933 46.4814 5.262C46.7054 5.64 46.8174 6.067 46.8174 6.543C46.8174 7.02367 46.7054 7.45533 46.4814 7.838C46.262 8.216 45.961 8.51233 45.5784 8.727C45.1957 8.94167 44.7757 9.049 44.3184 9.049ZM44.3184 8.174C44.6124 8.174 44.8714 8.10867 45.0954 7.978C45.3194 7.84267 45.4944 7.65133 45.6204 7.404C45.7464 7.15667 45.8094 6.86967 45.8094 6.543C45.8094 6.21633 45.7464 5.93167 45.6204 5.689C45.4944 5.44167 45.3194 5.25267 45.0954 5.122C44.8714 4.99133 44.6124 4.926 44.3184 4.926C44.0244 4.926 43.763 4.99133 43.5344 5.122C43.3104 5.25267 43.1354 5.44167 43.0094 5.689C42.8834 5.93167 42.8204 6.21633 42.8204 6.543C42.8204 6.86967 42.8834 7.15667 43.0094 7.404C43.1354 7.65133 43.3104 7.84267 43.5344 7.978C43.763 8.10867 44.0244 8.174 44.3184 8.174ZM49.8145 9.049C49.3571 9.049 48.9371 8.94167 48.5545 8.727C48.1718 8.51233 47.8685 8.216 47.6445 7.838C47.4205 7.45533 47.3085 7.02367 47.3085 6.543C47.3085 6.067 47.4205 5.64 47.6445 5.262C47.8685 4.87933 48.1718 4.58067 48.5545 4.366C48.9371 4.15133 49.3571 4.044 49.8145 4.044C50.2765 4.044 50.6965 4.15133 51.0745 4.366C51.4571 4.58067 51.7581 4.87933 51.9775 5.262C52.2015 5.64 52.3135 6.067 52.3135 6.543C52.3135 7.02367 52.2015 7.45533 51.9775 7.838C51.7581 8.216 51.4571 8.51233 51.0745 8.727C50.6918 8.94167 50.2718 9.049 49.8145 9.049ZM49.8145 8.174C50.1085 8.174 50.3675 8.10867 50.5915 7.978C50.8155 7.84267 50.9905 7.65133 51.1165 7.404C51.2425 7.15667 51.3055 6.86967 51.3055 6.543C51.3055 6.21633 51.2425 5.93167 51.1165 5.689C50.9905 5.44167 50.8155 5.25267 50.5915 5.122C50.3675 4.99133 50.1085 4.926 49.8145 4.926C49.5205 4.926 49.2591 4.99133 49.0305 5.122C48.8065 5.25267 48.6315 5.44167 48.5055 5.689C48.3795 5.93167 48.3165 6.21633 48.3165 6.543C48.3165 6.86967 48.3795 7.15667 48.5055 7.404C48.6315 7.65133 48.8065 7.84267 49.0305 7.978C49.2591 8.10867 49.5205 8.174 49.8145 8.174ZM57.2216 9L56.2416 9L54.0226 5.647L54.0226 9L53.0426 9L53.0426 4.107L54.0226 4.107L56.2416 7.467L56.2416 4.107L57.2216 4.107L57.2216 9Z" fill="white"/>
</svg>
