<svg width="64" height="64" viewBox="0 0 64 64" fill="none" xmlns="http://www.w3.org/2000/svg">
<rect width="64" height="64" rx="8" fill="#9B9EA3" fill-opacity="0.1"/>
<path d="M48.201 23.9005C47.9412 23.7597 47.6486 23.6859 47.351 23.6859C47.0535 23.6859 46.7609 23.7597 46.501 23.9005L40.5 26.7764C40.4486 25.4941 39.889 24.2808 38.9384 23.3905C37.9878 22.5002 36.7199 22.002 35.4 22H20.1C18.7474 22 17.4502 22.5224 16.4937 23.4522C15.5373 24.3821 15 25.6433 15 26.9583V36.875C15 38.19 15.5373 39.4512 16.4937 40.3811C17.4502 41.311 18.7474 41.8333 20.1 41.8333H35.4C36.7199 41.8313 37.9878 41.3331 38.9384 40.4428C39.889 39.5525 40.4486 38.3393 40.5 37.057L46.5521 39.9986C46.8089 40.1286 47.0962 40.1909 47.3855 40.1793C47.6748 40.1677 47.9561 40.0829 48.201 39.9328C48.4403 39.7775 48.643 39.5745 48.796 39.3376C48.931 39.0879 49.001 38.8099 49 38.5278V25.3056C49.001 25.0235 48.931 24.7454 48.796 24.4957C48.643 24.2588 48.4403 24.0559 48.201 23.9005ZM37.1 36.875C37.1023 37.0927 37.0599 37.3086 36.9753 37.5101C36.8906 37.7116 36.7654 37.8949 36.6071 38.0488C36.4488 38.2027 36.2605 38.324 36.0533 38.4063C35.846 38.4886 35.6239 38.53 35.4 38.5278H20.1C19.8761 38.53 19.654 38.4886 19.4467 38.4063C19.2394 38.324 19.0512 38.2027 18.8929 38.0488C18.7345 37.8949 18.6093 37.7116 18.5247 37.5101C18.4401 37.3086 18.3977 37.0927 18.4 36.875V26.9583C18.3977 26.7407 18.4401 26.5247 18.5247 26.3232C18.6093 26.1217 18.7345 25.9384 18.8929 25.7845C19.0512 25.6306 19.2394 25.5093 19.4467 25.427C19.654 25.3447 19.8761 25.3033 20.1 25.3056H35.4C35.6239 25.3033 35.846 25.3447 36.0533 25.427C36.2605 25.5093 36.4488 25.6306 36.6071 25.7845C36.7654 25.9384 36.8906 26.1217 36.9753 26.3232C37.0599 26.5247 37.1023 26.7407 37.1 26.9583V36.875ZM45.6 35.8501L40.5 33.3709V30.4624L45.6 27.9832V35.8501Z" fill="#6A6E75"/>
</svg>
