<svg width="64" height="64" viewBox="0 0 64 64" fill="none" xmlns="http://www.w3.org/2000/svg">
<rect width="64" height="64" rx="8" fill="#9B9EA3" fill-opacity="0.1"/>
<path d="M36.2151 32.42C36.9621 31.6097 37.4568 30.5993 37.6387 29.5123C37.8207 28.4254 37.6819 27.309 37.2396 26.2996C36.7972 25.2901 36.0703 24.4313 35.1478 23.8284C34.2252 23.2254 33.1471 22.9044 32.045 22.9044C30.943 22.9044 29.8647 23.2254 28.9421 23.8284C28.0196 24.4313 27.2927 25.2901 26.8503 26.2996C26.408 27.309 26.2694 28.4254 26.4514 29.5123C26.6333 30.5993 27.128 31.6097 27.875 32.42C26.5497 33.074 25.4092 34.0492 24.5577 35.2571C23.7061 36.465 23.1706 37.8668 23 39.3348C22.9779 39.5325 22.9959 39.7327 23.0526 39.9233C23.1092 40.114 23.2035 40.2913 23.33 40.4448C23.4508 40.6009 23.6024 40.731 23.7753 40.8264C23.9481 40.9219 24.1385 40.9808 24.335 41C24.5327 41.0221 24.7329 41.0043 24.9235 40.9476C25.1142 40.8909 25.2915 40.7965 25.445 40.67C25.6011 40.5492 25.7308 40.3976 25.8262 40.2247C25.9217 40.0519 25.9808 39.8617 26 39.6652C26.179 38.2119 26.8832 36.8739 27.9801 35.9038C29.077 34.9338 30.4907 34.3983 31.955 34.3983C33.4192 34.3983 34.8329 34.9338 35.9298 35.9038C37.0267 36.8739 37.7309 38.2119 37.9099 39.6652C37.9504 40.0506 38.1387 40.4052 38.4351 40.655C38.7333 40.9012 39.114 41.0246 39.5 41H39.665C40.0582 40.9548 40.4177 40.7561 40.6649 40.447C40.9122 40.138 41.0272 39.7434 40.985 39.3499C40.8231 37.8909 40.3028 36.4948 39.4705 35.2856C38.6383 34.0765 37.52 33.0922 36.2151 32.42ZM32 31.3401C31.4722 31.3418 30.9558 31.1855 30.5174 30.8915C30.079 30.5974 29.7387 30.179 29.54 29.6899C29.3323 29.2031 29.275 28.6653 29.3755 28.1456C29.4761 27.626 29.7297 27.1484 30.1039 26.7742C30.4782 26.3999 30.9559 26.1459 31.4756 26.0454C31.9953 25.9449 32.5332 26.0021 33.0201 26.2098C33.5091 26.4085 33.9274 26.7492 34.2214 27.1876C34.5155 27.626 34.6718 28.1422 34.67 28.67C34.671 29.021 34.6026 29.3685 34.4688 29.6929C34.335 30.0173 34.1383 30.3119 33.8902 30.5601C33.6421 30.8082 33.3474 31.0048 33.023 31.1387C32.6986 31.2725 32.3509 31.3411 32 31.3401ZM42.5 17H21.5C20.3065 17 19.1619 17.4741 18.318 18.318C17.4741 19.1619 17 20.3065 17 21.5V42.5C17 43.6935 17.4741 44.8381 18.318 45.682C19.1619 46.5259 20.3065 47 21.5 47H42.5C43.6935 47 44.8381 46.5259 45.682 45.682C46.5259 44.8381 47 43.6935 47 42.5V21.5C47 20.3065 46.5259 19.1619 45.682 18.318C44.8381 17.4741 43.6935 17 42.5 17ZM44 42.5C44.002 42.6975 43.9646 42.8935 43.89 43.0764C43.8153 43.2593 43.7048 43.4256 43.5651 43.5653C43.4254 43.705 43.2593 43.8151 43.0764 43.8898C42.8935 43.9644 42.6975 44.002 42.5 44H21.5C21.3025 44.002 21.1065 43.9644 20.9236 43.8898C20.7407 43.8151 20.5746 43.705 20.4349 43.5653C20.2952 43.4256 20.1847 43.2593 20.11 43.0764C20.0354 42.8935 19.998 42.6975 20 42.5V21.5C19.998 21.3025 20.0354 21.1065 20.11 20.9236C20.1847 20.7407 20.2952 20.5744 20.4349 20.4347C20.5746 20.295 20.7407 20.1849 20.9236 20.1102C21.1065 20.0356 21.3025 19.998 21.5 20H42.5C42.6975 19.998 42.8935 20.0356 43.0764 20.1102C43.2593 20.1849 43.4254 20.295 43.5651 20.4347C43.7048 20.5744 43.8153 20.7407 43.89 20.9236C43.9646 21.1065 44.002 21.3025 44 21.5V42.5Z" fill="#6A6E75"/>
</svg>
