<svg width="34" height="34" viewBox="0 0 34 34" fill="none" xmlns="http://www.w3.org/2000/svg">
<circle cx="17" cy="17" r="16" stroke="#B6BEC3"/>
<ellipse cx="13.7242" cy="19.5524" rx="0.547945" ry="0.546822" stroke="#FAFAFA"/>
<g opacity="0.75" clip-path="url(#clip0)">
<rect width="0.547945" height="0.519481" transform="translate(13.4497 19.3335)" fill="#FAFAFA"/>
<path d="M13.974 19.3987C13.9521 19.4133 13.9279 19.4245 13.9023 19.4318C13.8885 19.4168 13.8702 19.4062 13.8499 19.4013C13.8296 19.3965 13.8082 19.3977 13.7886 19.4048C13.769 19.4119 13.7522 19.4246 13.7405 19.441C13.7287 19.4575 13.7225 19.477 13.7228 19.4969V19.5186C13.6827 19.5196 13.6429 19.5111 13.6071 19.494C13.5712 19.4768 13.5404 19.4515 13.5173 19.4203C13.5173 19.4203 13.426 19.6156 13.6315 19.7023C13.5845 19.7326 13.5285 19.7478 13.4717 19.7457C13.6772 19.8541 13.9283 19.7457 13.9283 19.4963C13.9283 19.4902 13.9277 19.4842 13.9265 19.4783C13.9498 19.4564 13.9662 19.4289 13.974 19.3987Z" stroke="#BDBDBD" stroke-width="1.5" stroke-linecap="round" stroke-linejoin="round"/>
</g>
<g clip-path="url(#clip1)">
<path fill-rule="evenodd" clip-rule="evenodd" d="M23.6587 12.3941C23.8311 12.8363 23.9514 13.3467 23.9842 14.089C24.017 14.8342 24.0197 15.0716 24.0197 16.9685C24.0197 18.8653 24.0115 19.1028 23.9787 19.8479C23.9459 20.5902 23.8255 21.0979 23.6533 21.5428C23.2895 22.4817 22.5457 23.224 21.6048 23.587C21.1618 23.759 20.6504 23.879 19.9065 23.9118C19.1598 23.9446 18.9219 23.9527 17.0212 23.9527C15.1204 23.9527 14.8824 23.9446 14.1358 23.9118C13.3918 23.879 12.8832 23.759 12.4374 23.587C11.9725 23.4124 11.5486 23.1367 11.1985 22.7819C10.8429 22.4325 10.5668 22.0122 10.389 21.5428C10.2167 21.1006 10.0963 20.5902 10.0635 19.8479C10.0307 19.1028 10.0225 18.8653 10.0225 16.9685C10.0225 15.0716 10.0307 14.8342 10.0663 14.0863C10.0991 13.3439 10.2194 12.8363 10.3917 12.3914C10.5668 11.9275 10.8429 11.5044 11.1985 11.155C11.5486 10.7975 11.9697 10.5245 12.4402 10.3471C12.8832 10.1753 13.3946 10.0551 14.1385 10.0224C14.8851 9.98965 15.1231 9.98145 17.0238 9.98145C18.9246 9.98145 19.1625 9.98965 19.9119 10.0252C20.6558 10.0579 21.1645 10.1779 21.6102 10.3499C22.0752 10.5245 22.4991 10.8002 22.8492 11.155C23.2075 11.5044 23.481 11.9247 23.6587 12.3941Z" fill="#B6BEC3"/>
<path d="M17.0251 13.3794C15.0396 13.3794 13.4287 14.9869 13.4287 16.9684C13.4287 18.9499 15.0396 20.5575 17.0251 20.5575C19.0107 20.5575 20.6215 18.9499 20.6215 16.9684C20.6215 14.9869 19.0107 13.3794 17.0251 13.3794ZM17.0251 19.2965C15.737 19.2965 14.6922 18.254 14.6922 16.9684C14.6922 15.6829 15.737 14.6403 17.0251 14.6403C18.3133 14.6403 19.358 15.6829 19.358 16.9684C19.358 18.254 18.3133 19.2965 17.0251 19.2965Z" fill="#474F5A"/>
<path d="M21.6036 13.2375C21.6036 13.7002 21.2277 14.0754 20.7639 14.0754C20.3003 14.0754 19.9243 13.7002 19.9243 13.2375C19.9243 12.7747 20.3003 12.3997 20.7639 12.3997C21.2277 12.3997 21.6036 12.7747 21.6036 13.2375Z" fill="#474F5A"/>
</g>
<defs>
<clipPath id="clip0">
<rect width="0.547945" height="0.519481" fill="white" transform="translate(13.4497 19.3335)"/>
</clipPath>
<clipPath id="clip1">
<rect width="14" height="13.9713" fill="white" transform="translate(10 9.98145)"/>
</clipPath>
</defs>
</svg>
